<svg width="70" height="70" viewBox="0 0 70 70" fill="none" xmlns="http://www.w3.org/2000/svg">
<path d="M70.01 35C70.01 25.65 66.37 16.86 59.76 10.25C53.15 3.64 44.36 0 35.01 0C27.79 0 20.91 2.17001 15.1 6.21001C14.39 5.97001 13.63 5.84 12.84 5.84C8.97003 5.84 5.84003 8.97 5.84003 12.84C5.84003 13.63 5.97002 14.39 6.21002 15.1C2.18002 20.91 0 27.79 0 35.01C0 44.36 3.64 53.15 10.25 59.76C16.86 66.37 25.65 70.01 35 70.01C42.22 70.01 49.1 67.84 54.91 63.8C55.62 64.04 56.38 64.17 57.17 64.17C61.04 64.17 64.17 61.04 64.17 57.17C64.17 56.38 64.04 55.62 63.8 54.91C67.83 49.11 70.01 42.22 70.01 35ZM33.8 48.07C33.57 48.23 33.33 48.38 33.1 48.53C32.28 48.09 31.34 47.84 30.34 47.84C27.35 47.84 24.88 50.1 24.55 53C21.79 54.12 18.94 54.99 16.02 55.58C15.75 55.33 15.47 55.07 15.21 54.8C14.94 54.53 14.68 54.26 14.43 53.98C15.05 50.96 15.97 48 17.13 45.16C21.11 35.53 28.17 27.17 36.92 21.47C37.74 21.91 38.68 22.16 39.67 22.16C42.66 22.16 45.13 19.9 45.46 17C46.64 16.52 47.83 16.09 49.05 15.71C50.66 15.2 52.32 14.76 53.98 14.42C54.26 14.68 54.53 14.94 54.8 15.2C55.07 15.47 55.33 15.74 55.58 16.01C54.69 20.36 53.19 24.59 51.17 28.54C47.17 36.38 41.05 43.1 33.8 48.07ZM7.01001 35C7.01001 29.49 8.58998 24.22 11.54 19.71C11.96 19.79 12.4 19.83 12.84 19.83C16.71 19.83 19.84 16.7 19.84 12.83C19.84 12.39 19.8 11.95 19.72 11.53C24.23 8.58 29.5 7 35.01 7C40.21 7 45.2 8.41 49.54 11.05C47.53 11.18 45.52 11.5 43.55 11.97C42.52 11.06 41.17 10.5 39.68 10.5C36.69 10.5 34.22 12.76 33.89 15.66C23.23 21.41 14.8 31.7 11.99 43.53C11.54 45.49 11.21 47.5 11.07 49.52C8.42001 45.2 7.01001 40.21 7.01001 35ZM20.47 58.95C22.49 58.81 24.49 58.49 26.46 58.03C27.49 58.95 28.85 59.51 30.34 59.51C33.34 59.51 35.8 57.25 36.13 54.34C44.09 50.07 50.71 43.26 54.81 35.24C57.07 30.78 58.61 25.62 58.95 20.48C61.59 24.82 63 29.8 63 35.01C63 40.52 61.42 45.79 58.47 50.3C58.05 50.22 57.61 50.18 57.17 50.18C53.3 50.18 50.17 53.31 50.17 57.18C50.17 57.62 50.21 58.06 50.29 58.48C45.78 61.43 40.51 63.01 35 63.01C29.8 63 24.81 61.59 20.47 58.95Z" fill="white"/>
</svg>
