<svg width="68" height="67" viewBox="0 0 68 67" fill="none" xmlns="http://www.w3.org/2000/svg">
<path d="M41.8752 14.27C42.7452 14.49 43.6052 14.76 44.4552 15.05C48.1152 16.32 51.4952 18.12 54.6852 20.35L56.5052 18.87C56.0552 17.85 55.4752 16.88 54.8352 15.95C51.9152 11.87 47.6752 8.86 42.9652 7.14C41.9452 3.04 38.2452 0 33.8352 0C29.4252 0 25.7152 3.05001 24.7052 7.15001C23.2252 7.69001 21.7952 8.35001 20.4352 9.13C16.5252 11.42 13.1152 14.75 11.1952 18.89L13.0052 20.39C14.2852 19.55 15.4952 18.73 16.8052 17.99C17.1252 17.79 17.7452 17.47 18.0652 17.29C20.5552 15.99 23.1352 14.97 25.8052 14.29C27.4552 17 30.4352 18.81 33.8352 18.81C37.2452 18.8 40.2252 16.98 41.8752 14.27Z" fill="white"/>
<path d="M67.3552 49.27C66.9052 47.59 66.0152 46.1 64.7952 44.93C65.8652 38.87 64.9052 32.46 61.3852 27.36L59.1852 28.18C59.2352 29.22 59.3252 30.21 59.3352 31.2C59.4552 34.97 59.0652 38.71 58.0652 42.31C54.7952 42.39 51.7752 44.17 50.1352 47.01C48.4352 49.95 48.5152 53.45 50.0352 56.23C49.7252 56.55 49.4052 56.86 49.0852 57.16C46.6552 59.41 43.9652 61.34 41.0452 62.93C40.1852 63.4 39.2852 63.83 38.3552 64.29L38.7252 66.61C44.8652 67.12 50.9352 64.72 55.6652 60.74C56.5052 60.98 57.3852 61.11 58.2652 61.11C61.6152 61.11 64.7352 59.31 66.4152 56.41C67.6652 54.23 68.0052 51.7 67.3552 49.27Z" fill="white"/>
<path d="M25.0452 61.99C22.3252 60.36 19.8352 58.46 17.6552 56.23C19.1752 53.44 19.2552 49.95 17.5552 47.01C15.9152 44.17 12.8852 42.38 9.60522 42.31C9.24522 41 8.95518 39.66 8.75518 38.32C8.21518 34.95 8.17521 31.59 8.47521 28.18L6.2752 27.34C5.6152 28.24 5.0652 29.23 4.5852 30.25C2.5252 34.82 2.02519 39.99 2.88519 44.93C1.66519 46.1 0.775188 47.59 0.325188 49.27C-0.324812 51.7 0.00519085 54.23 1.26519 56.4C2.93519 59.3 6.06522 61.1 9.41522 61.1C10.2952 61.1 11.1652 60.97 12.0052 60.73C15.8452 63.96 20.5752 66.12 25.5852 66.57C26.7052 66.68 27.8252 66.67 28.9352 66.57L29.3252 64.25C28.4052 63.78 27.4952 63.36 26.6352 62.88C26.1452 62.63 25.5352 62.26 25.0452 61.99Z" fill="white"/>
</svg>
