<svg width="70" height="70" viewBox="0 0 70 70" fill="none" xmlns="http://www.w3.org/2000/svg">
<path d="M59.75 10.25C53.14 3.64 44.35 0 35 0C25.65 0 16.86 3.64 10.25 10.25C3.64 16.86 0 25.65 0 35C0 44.35 3.64 53.14 10.25 59.75C16.86 66.36 25.65 70 35 70C44.35 70 53.14 66.36 59.75 59.75C66.36 53.14 70 44.35 70 35C70.01 25.65 66.36 16.86 59.75 10.25ZM16.72 23.89C17.11 20.91 19.84 18.8 22.83 19.19C25.81 19.58 27.92 22.31 27.53 25.3C27.14 28.28 24.41 30.39 21.42 30C18.43 29.61 16.33 26.87 16.72 23.89ZM48.21 46.52C47.66 46.9 47.09 47.27 46.5 47.61C38.7 52.16 29.25 51.95 21.82 46.75C20.64 45.92 19.5 44.98 18.49 43.95C18.01 43.47 17.55 42.98 17.12 42.46L17.49 39.6C19.1 40.61 20.71 41.63 22.41 42.5C29.15 46.08 35.66 46.93 43.09 45.2C44.93 44.79 46.74 44.24 48.53 43.68C48.55 43.67 48.56 43.67 48.58 43.66L48.21 46.52ZM53.04 24.85C51.55 25.76 49.99 26.58 48.41 27.32C49.91 28.02 51.27 28.96 52.34 30.23L51.99 32.92C51.6 32.67 51.21 32.43 50.81 32.23C47.65 30.69 43.77 30.44 40.3 30.52L40.11 30.53L39.96 30.54C37.13 30.65 36.38 26.8 39.01 25.83C42.58 24.6 46.24 23.59 49.98 22.95C51.09 22.77 52.22 22.61 53.35 22.53L53.04 24.85Z" fill="#FAFAFA"/>
</svg>
