<svg width="70" height="70" viewBox="0 0 70 70" fill="none" xmlns="http://www.w3.org/2000/svg">
<path d="M57.16 44.32C52.78 44.32 48.91 46.52 46.6 49.87L25.72 35.54L46.62 20.14C48.94 23.48 52.8 25.66 57.17 25.66C64.26 25.66 70 19.91 70 12.83C70 5.75002 64.25 0 57.17 0C50.09 0 44.34 5.75002 44.34 12.83C44.34 14.67 44.73 16.42 45.42 18L24.13 28.91C21.96 24.9 17.72 22.17 12.83 22.17C5.73999 22.17 0 27.92 0 35C0 42.09 5.74999 47.83 12.83 47.83C17.39 47.83 21.39 45.46 23.66 41.88L45.4 52.02C44.71 53.59 44.33 55.33 44.33 57.16C44.33 64.25 50.08 69.99 57.16 69.99C64.24 69.99 69.99 64.24 69.99 57.16C69.99 50.08 64.25 44.32 57.16 44.32Z" fill="#FAFAFA"/>
</svg>
