<svg width="21" height="16" viewBox="0 0 21 16" fill="none" xmlns="http://www.w3.org/2000/svg">
<path d="M18.8277 0.125H2.17231C0.974434 0.125 0 1.08847 0 2.27287V13.7271C0 14.9115 0.974434 15.875 2.17231 15.875H18.8277C20.0256 15.875 21 14.9115 21 13.7271V2.27287C21 1.08847 20.0256 0.125 18.8277 0.125ZM18.0208 12.2083C17.4405 11.8708 16.8571 11.5363 16.2768 11.2018C15.3737 10.6894 14.4707 10.177 13.5614 9.67687C13.1207 10.1187 12.7018 10.536 12.3232 10.9134C12.047 11.1865 11.4946 11.748 11.2184 12.0242H9.77848C9.11748 11.3583 8.2734 10.5115 7.43241 9.6738C5.93352 10.4961 4.45325 11.3461 2.97298 12.2052C2.7092 12.3648 2.43612 12.5151 2.16924 12.6716V11.7296C2.26234 11.6468 2.35541 11.567 2.45161 11.4872C2.96055 11.0515 3.46329 10.6097 3.96912 10.1709C4.67047 9.55413 5.37182 8.93432 6.06695 8.31144C5.81248 8.05983 5.57044 7.81742 5.34701 7.5965C4.67359 6.93066 2.97296 5.25534 2.17231 4.46369V3.45418C2.71228 3.88683 3.31435 4.32254 3.75812 4.68154C4.99323 5.64194 7.48207 7.55969 8.72339 8.51089C9.21681 8.88523 9.89643 9.40685 10.4985 9.86404C13.0866 7.90027 15.9758 5.66342 18.4801 3.72113C18.5949 3.63215 18.7129 3.54316 18.8277 3.45111V4.45141C18.4894 4.78893 18.1605 5.12338 17.8781 5.39033C17.0278 6.22493 15.9696 7.27125 14.9269 8.30529C15.622 8.92817 16.3203 9.54493 17.0247 10.1617C17.5305 10.6005 18.0332 11.0423 18.5422 11.478C18.6384 11.5578 18.7346 11.6406 18.8277 11.7235V12.6655C18.5608 12.5182 18.2877 12.3678 18.0208 12.2083Z" fill="#EF0074"/>
</svg>
