<svg width="68" height="69" viewBox="0 0 68 69" fill="none" xmlns="http://www.w3.org/2000/svg">
<path d="M65.3301 68.8987H0V1.22872H7V61.8987H65.3301V68.8987ZM66.9301 7.66872L55 18.1687L53.8501 16.9987L50.5801 19.6787C55.1301 25.4787 55.13 34.2487 49.38 39.9787C46.62 42.7387 43.16 44.1787 39.67 44.4087V58.3887H32.64V43.2487C29.09 41.7787 26.06 38.9687 24.42 35.0087C22.04 29.4387 23.4101 22.5687 27.7401 18.3287C31.9701 13.9987 38.84 12.6287 44.42 15.0087C45.77 15.5687 46.98 16.2887 48.05 17.1287L50.75 13.8387L49.5801 12.6587L60.0601 0.798712C60.9601 -0.221288 62.5301 -0.271289 63.4901 0.688711L67.04 4.21873C68 5.19873 67.9501 6.76872 66.9301 7.66872ZM42.1101 20.5987C38.7301 19.1587 34.57 19.9787 32 22.6087C29.37 25.1787 28.5501 29.3387 29.9901 32.7187C32.5101 38.8087 40.4601 40.3887 45.1201 35.7287C49.7901 31.0687 48.2001 23.1087 42.1101 20.5987ZM14.03 58.3987H20.9801V16.3987H14.03V58.3987ZM51.3301 58.3987H58.3301V40.9687H51.3301V58.3987Z" fill="white"/>
</svg>
