<svg width="68" height="53" viewBox="0 0 68 53" fill="none" xmlns="http://www.w3.org/2000/svg">
<path d="M66.4401 45.61L59.5 39.69H8.17004L1.22998 45.61C0.44998 46.27 0 47.25 0 48.27V49.05C0 50.98 1.57 52.55 3.5 52.55H64.17C66.1 52.55 67.67 50.98 67.67 49.05V48.27C67.67 47.25 67.2201 46.28 66.4401 45.61ZM37.8201 49.47C37.4101 49.88 36.83 50.14 36.2 50.14H31.47C30.21 50.14 29.1801 49.12 29.1801 47.85H38.49C38.49 48.49 38.2301 49.06 37.8201 49.47ZM59.5 36.16H8.17004V5.82999C8.17004 2.60999 10.79 0 14 0H53.67C56.89 0 59.5 2.61999 59.5 5.82999V36.16ZM12.84 31.49H54.84V5.81999C54.84 5.17999 54.32 4.64999 53.67 4.64999H14C13.36 4.64999 12.83 5.16999 12.83 5.81999V31.49H12.84ZM36.17 8.15999C36.17 9.44999 35.13 10.49 33.84 10.49C32.55 10.49 31.51 9.44999 31.51 8.15999C31.51 6.86999 32.55 5.82999 33.84 5.82999C35.13 5.82999 36.17 6.86999 36.17 8.15999Z" fill="white"/>
</svg>
